<svg xmlns="http://www.w3.org/2000/svg" viewBox="0 0 500 500"><g id="freepik--background-complete--inject-38"><rect x="136.54" y="52.91" width="3.97" height="67.88" transform="matrix(1, 0, 0, 1, 0.12, -0.2)" style="fill:#e0e0e0"></rect><rect x="56.43" y="54.37" width="80.11" height="65.05" transform="translate(0.12 -0.14) rotate(0.08)" style="fill:#fff"></rect><path d="M138,121l-83.15-.12L55,52.79l83.15.12Zm-80.1-3.15L135,118l.08-62L58,55.84Z" style="fill:#ebebeb"></path><rect x="87.18" y="78.11" width="22.45" height="17.48" transform="matrix(1, 0, 0, 1, 0.12, -0.14)" style="fill:#e0e0e0"></rect><rect x="431.73" y="156.53" width="3.55" height="60.72" transform="translate(0.26 -0.61) rotate(0.08)" style="fill:#e0e0e0"></rect><rect x="360.07" y="157.84" width="71.66" height="58.19" transform="translate(0.27 -0.56) rotate(0.08)" style="fill:#fff"></rect><path d="M433,217.44l-74.38-.11.09-60.9,74.38.1Zm-71.65-2.82,68.94.1.07-55.47-68.94-.1Z" style="fill:#ebebeb"></path><rect x="387.57" y="179.08" width="20.08" height="15.64" transform="translate(0.27 -0.56) rotate(0.08)" style="fill:#e0e0e0"></rect><rect x="415.93" y="50.28" width="7.38" height="36.71" transform="translate(-0.36 2.25) rotate(-0.31)" style="fill:#e0e0e0"></rect><rect x="351.98" y="50.41" width="19.1" height="20.26" transform="translate(-0.32 1.93) rotate(-0.31)" style="fill:#ebebeb"></rect><rect x="370.99" y="50.31" width="19.1" height="20.26" transform="translate(-0.32 2.04) rotate(-0.31)" style="fill:#f5f5f5"></rect><path d="M352,56.06c12.7.1,25.43,0,38.12-.18a.21.21,0,0,0,0-.41c-12.7-.07-25.43,0-38.12.24a.18.18,0,0,0,0,.35Z" style="fill:#e0e0e0"></path><rect x="340.06" y="70.38" width="34.71" height="16.51" transform="translate(-0.42 1.92) rotate(-0.31)" style="fill:#ebebeb"></rect><rect x="374.6" y="70.19" width="34.71" height="16.51" transform="translate(-0.41 2.1) rotate(-0.31)" style="fill:#f5f5f5"></rect><path d="M340,75.06c23,.26,46.19,0,69.25-.34a.21.21,0,0,0,0-.41c-23.06-.12-46.2-.1-69.25.4a.18.18,0,0,0,0,.35Z" style="fill:#e0e0e0"></path><rect x="327.06" y="86.98" width="134.47" height="5.92" style="fill:#e0e0e0"></rect><rect x="349.07" y="89.83" width="5.46" height="20.19" style="fill:#e0e0e0"></rect><rect x="430.56" y="89.83" width="5.46" height="20.19" style="fill:#e0e0e0"></rect><rect x="423.17" y="36.59" width="7.38" height="50.49" transform="translate(-0.33 2.29) rotate(-0.31)" style="fill:#ebebeb"></rect><rect x="430.58" y="46" width="11.46" height="40.91" transform="translate(-0.35 2.34) rotate(-0.31)" style="fill:#f5f5f5"></rect><path d="M441.86,53.85a82.33,82.33,0,0,1-11.47,0,82.33,82.33,0,0,1,11.47,0Z" style="fill:#e0e0e0"></path><path d="M441.86,52.13a82.33,82.33,0,0,1-11.47,0,86.65,86.65,0,0,1,11.47,0Z" style="fill:#e0e0e0"></path><path d="M441.86,80.73a82.33,82.33,0,0,1-11.47,0,82.33,82.33,0,0,1,11.47,0Z" style="fill:#e0e0e0"></path><path d="M441.86,79a82.33,82.33,0,0,1-11.47,0,82.33,82.33,0,0,1,11.47,0Z" style="fill:#e0e0e0"></path><path d="M436.31,75.26c-.11,0-.2-4.13-.2-9.22s.09-9.22.2-9.22.2,4.13.2,9.22S436.42,75.26,436.31,75.26Z" style="fill:#e0e0e0"></path><rect x="441.98" y="56.02" width="12.48" height="30.88" style="fill:#ebebeb"></rect><path d="M428.73,45.19a2.12,2.12,0,1,1-2.12-2.12A2.12,2.12,0,0,1,428.73,45.19Z" style="fill:#e0e0e0"></path><rect x="425.95" y="51.02" width="1.31" height="30.03" style="fill:#e0e0e0"></rect><rect x="35.14" y="328.5" width="185.4" height="85.5" style="fill:#f5f5f5"></rect><path d="M216.12,410H39.38V333H216.12ZM40.53,408.82H215V334.15H40.53Z" style="fill:#e0e0e0"></path><rect x="220.54" y="328.5" width="45.29" height="85.5" style="fill:#e0e0e0"></rect><path d="M40,356.82H215.55a.23.23,0,0,0,0-.46H40a.23.23,0,0,0,0,.46Z" style="fill:#e0e0e0"></path><path d="M128.33,356.59a193.59,193.59,0,0,0,0-23.23.24.24,0,0,0-.47,0,193.59,193.59,0,0,0,.06,23.23.18.18,0,0,0,.36,0Z" style="fill:#e0e0e0"></path><path d="M175.59,345a2.4,2.4,0,1,1-2.39-2.4A2.39,2.39,0,0,1,175.59,345Z" style="fill:#e0e0e0"></path><path d="M83.44,345a2.4,2.4,0,1,1-2.39-2.4A2.39,2.39,0,0,1,83.44,345Z" style="fill:#e0e0e0"></path><path d="M130.14,371.49a2.39,2.39,0,1,1-2.39-2.39A2.39,2.39,0,0,1,130.14,371.49Z" style="fill:#e0e0e0"></path><polygon points="57.3 414.01 48.36 465.64 53.73 465.64 70.72 414.01 57.3 414.01" style="fill:#e0e0e0"></polygon><polygon points="207.42 414.01 215.4 465.64 210.03 465.64 194 414.01 207.42 414.01" style="fill:#e0e0e0"></polygon><polygon points="243.26 414.01 252.75 465.64 247.38 465.64 229.84 414.01 243.26 414.01" style="fill:#e0e0e0"></polygon><path d="M130,395.69a2.39,2.39,0,1,1-2.39-2.4A2.39,2.39,0,0,1,130,395.69Z" style="fill:#e0e0e0"></path><path d="M40,383.3H215.55a.24.24,0,0,0,0-.47H40a.24.24,0,0,0,0,.47Z" style="fill:#e0e0e0"></path></g><g id="freepik--Floor--inject-38"><path d="M451.56,465.29c0,.14-92.94.26-207.55.26s-207.57-.12-207.57-.26S129.36,465,244,465,451.56,465.15,451.56,465.29Z" style="fill:#263238"></path></g><g id="freepik--Plant--inject-38"><path d="M402.38,359.08V347.27c14.75,0,12.28-9.11,12.28-39.44,0-20.83-.65-31.88,7.68-31.88,7.69,0,9.53,5.4,9.53,29.1C431.87,348.93,426,359.08,402.38,359.08Z" style="fill:#455a64"></path><path d="M387,395.65V383.84c-14.75,0-12.28-9.11-12.28-39.44,0-20.83.65-31.88-7.68-31.88-7.68,0-9.53,5.4-9.53,29.1C357.52,385.5,363.38,395.65,387,395.65Z" style="fill:#455a64"></path><path d="M394.29,238.53c11.67,0,10.81,15.28,10.81,34V421.24H383.48V272.51C383.48,253.81,382.62,238.53,394.29,238.53Z" style="fill:#455a64"></path><path d="M400.57,421.71s0-.17,0-.48,0-.8,0-1.4c0-1.25,0-3.05,0-5.36,0-4.69-.07-11.42-.12-19.73-.16-16.68-.37-39.68-.61-65.09s-.58-48.41-.77-65.09c-.06-4.17-.11-7.94-.35-11.25a55.15,55.15,0,0,0-1.21-8.41,35.13,35.13,0,0,0-1.59-5.13c-.22-.57-.43-1-.56-1.28s-.21-.42-.21-.42a4.5,4.5,0,0,0,.16.45c.11.29.3.72.51,1.29a37,37,0,0,1,1.48,5.14,54.87,54.87,0,0,1,1.11,8.39c.22,3.29.24,7.06.27,11.22.15,16.68.37,39.69.61,65.1s.58,48.41.77,65.09c.13,8.3.23,15,.3,19.72.05,2.31.08,4.11.11,5.37,0,.59,0,1.05,0,1.39S400.57,421.71,400.57,421.71Z" style="fill:#263238"></path><path d="M390.82,421.49s0-.16,0-.47,0-.8,0-1.39v-5.35c0-4.66-.05-11.37-.09-19.64-.13-16.61-.3-39.51-.5-64.81s-.49-48.21-.66-64.82c-.05-4.15-.09-7.9.06-11.18a71.1,71.1,0,0,1,.78-8.4c.36-2.28.78-4,1.08-5.21l.38-1.34c.08-.3.11-.46.11-.46a36.42,36.42,0,0,0-1.79,7,69.3,69.3,0,0,0-.87,8.41c-.17,3.3-.16,7.06-.14,11.2.13,16.61.31,39.52.5,64.82s.49,48.2.66,64.81c.11,8.28.2,15,.27,19.65,0,2.29.07,4.09.1,5.34,0,.59,0,1.05,0,1.39S390.82,421.49,390.82,421.49Z" style="fill:#263238"></path><path d="M383.26,395.46a67.51,67.51,0,0,0,.42-12.06,65.11,65.11,0,0,0-.42,12.06Z" style="fill:#263238"></path><path d="M366.48,312.65a4.87,4.87,0,0,0-.06.86c0,.6,0,1.42-.06,2.44,0,2.18-.07,5.23-.11,9,0,7.64-.1,18.09-.17,29.65,0,5.78,0,11.35,1,16.31a26.57,26.57,0,0,0,5.5,12.1,18.23,18.23,0,0,0,7.14,5.43,11.69,11.69,0,0,0,3.18.87,31.2,31.2,0,0,1-3.1-1.07,18.66,18.66,0,0,1-6.92-5.47,26.54,26.54,0,0,1-5.3-12c-1-4.9-1-10.43-1-16.21,0-11.55,0-22,0-29.65,0-3.75-.05-6.8-.07-9,0-1,0-1.84,0-2.44A8.38,8.38,0,0,0,366.48,312.65Z" style="fill:#263238"></path><path d="M405.11,346.82a85.51,85.51,0,0,0,0,13.58,82.47,82.47,0,0,0,0-13.58Z" style="fill:#263238"></path><path d="M422.91,276a4.85,4.85,0,0,0,0,.87c0,.62,0,1.44,0,2.48.07,2.22.16,5.32.27,9.14.22,7.71.67,18.36.52,30.12-.14,5.88-.09,11.52-1.31,16.45a27.72,27.72,0,0,1-5.7,12,17,17,0,0,1-7.37,5.08,22.64,22.64,0,0,1-3.25.7,10,10,0,0,0,3.32-.5,16.79,16.79,0,0,0,7.59-5,27.8,27.8,0,0,0,5.9-12.17c1.26-5,1.23-10.69,1.36-16.56.15-11.79-.35-22.44-.68-30.15-.18-3.81-.33-6.91-.43-9.12-.06-1-.11-1.87-.14-2.48A5,5,0,0,0,422.91,276Z" style="fill:#263238"></path><g style="opacity:0.1"><path d="M408,358.85l-.44-12.14-2.51.43,0,11.89S407.61,358.89,408,358.85Z"></path></g><path d="M429.52,316.1a12.89,12.89,0,0,0,5.22.78,6.58,6.58,0,0,0-2.57-.66A6.5,6.5,0,0,0,429.52,316.1Z" style="fill:#263238"></path><path d="M429.78,304.35a6.62,6.62,0,0,0,2.67-.25,7.05,7.05,0,0,0,2.56-.79,6.62,6.62,0,0,0-2.67.25A6.75,6.75,0,0,0,429.78,304.35Z" style="fill:#263238"></path><path d="M434.48,285.55a5.43,5.43,0,0,0-2.63,1.14c-1.34.88-2.17,1.89-2.07,2a12.16,12.16,0,0,0,2.37-1.54A12.63,12.63,0,0,0,434.48,285.55Z" style="fill:#263238"></path><path d="M426.91,273.54a7.51,7.51,0,0,0-1.3,2.51,7.65,7.65,0,0,0-.79,2.71,14.57,14.57,0,0,0,2.09-5.22Z" style="fill:#263238"></path><path d="M416.17,274.34a23.23,23.23,0,0,0,3.4,6.27,11.94,11.94,0,0,0-1.46-3.27A11.38,11.38,0,0,0,416.17,274.34Z" style="fill:#263238"></path><path d="M412.55,288.42a5.58,5.58,0,0,0,2.28.92,5.79,5.79,0,0,0,2.42.39,5.58,5.58,0,0,0-2.28-.92A5.77,5.77,0,0,0,412.55,288.42Z" style="fill:#263238"></path><path d="M418.56,303.57c.11.1.78-.46,1.5-1.25s1.22-1.52,1.11-1.63-.79.46-1.51,1.26S418.44,303.46,418.56,303.57Z" style="fill:#263238"></path><path d="M413.62,318.74c.11.11,1.07-.62,2.15-1.63s1.87-1.92,1.76-2-1.06.62-2.14,1.63S413.52,318.63,413.62,318.74Z" style="fill:#263238"></path><path d="M428.22,325.24c-.11.11.74,1.07,1.9,2.16a7.66,7.66,0,0,0,2.27,1.75c.11-.11-.74-1.07-1.9-2.16A7.66,7.66,0,0,0,428.22,325.24Z" style="fill:#263238"></path><path d="M426.39,338.55c.14-.05,0-1-.39-2s-.77-1.92-.92-1.87,0,1,.4,2S426.25,338.6,426.39,338.55Z" style="fill:#263238"></path><path d="M425.05,354a22,22,0,0,0-2.85-6.27,11.12,11.12,0,0,0,1.17,3.25A10.87,10.87,0,0,0,425.05,354Z" style="fill:#263238"></path><path d="M416.15,361a17.15,17.15,0,0,0-1.06-6,8.48,8.48,0,0,0,.26,3.05A8.72,8.72,0,0,0,416.15,361Z" style="fill:#263238"></path><path d="M411.49,337.71a6.33,6.33,0,0,0,2.54-.28,6.18,6.18,0,0,0,2.41-.82,6.09,6.09,0,0,0-2.53.28A6,6,0,0,0,411.49,337.71Z" style="fill:#263238"></path><path d="M412.55,328.63c0,.15,1,.1,2.14-.12s2.07-.51,2-.66-1-.1-2.14.12S412.52,328.48,412.55,328.63Z" style="fill:#263238"></path><g style="opacity:0.1"><path d="M422.93,276.61c-.37,0-.59,4.69-.29,12.22.14,3.77.4,8.25.7,13.2s.63,10.41.75,16.09a63.47,63.47,0,0,1-1.34,15.75,44,44,0,0,1-1.95,6.57,24.52,24.52,0,0,1-2.8,5.15,17,17,0,0,1-6.42,5.46c-1.83.88-3,1.16-2.94,1.38s1.24.24,3.34-.39a16.07,16.07,0,0,0,7.55-5.25,24.34,24.34,0,0,0,3.36-5.45,41.45,41.45,0,0,0,2.32-6.88,59,59,0,0,0,1.62-16.39c-.12-5.79-.54-11.26-1-16.22s-.89-9.42-1.28-13.15C423.78,281.22,423.32,276.6,422.93,276.61Z"></path></g><path d="M372.48,366.74a10.62,10.62,0,0,0,4.76,0,10.25,10.25,0,0,0-4.76,0Z" style="fill:#263238"></path><path d="M372.62,355.26a5,5,0,0,0,2.3-.22c1.24-.27,2.21-.61,2.18-.76a10,10,0,0,0-4.48,1Z" style="fill:#263238"></path><path d="M372.07,342.42a13.68,13.68,0,0,0,5.45-.45,14.18,14.18,0,0,0-5.45.45Z" style="fill:#263238"></path><path d="M373.88,331.06c.06.14,1-.16,2.14-.66s2-1,1.92-1.16-1,.16-2.14.66S373.82,330.92,373.88,331.06Z" style="fill:#263238"></path><path d="M372.76,321.41a5.05,5.05,0,0,0,2.24-1.36c1.11-.94,1.79-1.9,1.68-2s-1,.67-2,1.59S372.68,321.28,372.76,321.41Z" style="fill:#263238"></path><path d="M369.42,314.28c.13.06.68-.79,1.23-1.91s.87-2.08.73-2.15-.69.79-1.23,1.91S369.28,314.21,369.42,314.28Z" style="fill:#263238"></path><path d="M359.88,311.76c-.12.1.4.93,1,1.95s1.12,1.86,1.26,1.8-.15-1-.8-2.09S360,311.67,359.88,311.76Z" style="fill:#263238"></path><path d="M355.41,324.34A5.15,5.15,0,0,0,358,325a5.07,5.07,0,0,0,2.62-.21,8.9,8.9,0,0,0-2.58-.34A8.77,8.77,0,0,0,355.41,324.34Z" style="fill:#263238"></path><path d="M355.55,333.44c-.07.14.91.8,2.19,1.49a6.59,6.59,0,0,0,2.44,1,6.56,6.56,0,0,0-2.18-1.49A6.67,6.67,0,0,0,355.55,333.44Z" style="fill:#263238"></path><path d="M355.29,348.31c.07.13,1-.16,2-.66s1.84-1,1.77-1.16-1,.16-2,.66S355.23,348.17,355.29,348.31Z" style="fill:#263238"></path><path d="M356.12,356.51c-.06.13.67.62,1.63,1.08s1.8.73,1.87.6-.66-.63-1.63-1.09S356.19,356.37,356.12,356.51Z" style="fill:#263238"></path><path d="M358.33,373.86c.12.1.83-.51,1.61-1.36s1.3-1.62,1.19-1.72-.83.5-1.6,1.36S358.22,373.76,358.33,373.86Z" style="fill:#263238"></path><path d="M364,389a65.56,65.56,0,0,0,1.4-5.46,5.54,5.54,0,0,0-1.17,2.61A5.44,5.44,0,0,0,364,389Z" style="fill:#263238"></path><path d="M374.13,396.82a13,13,0,0,0-.39-5.32,6.7,6.7,0,0,0-.08,2.68A6.57,6.57,0,0,0,374.13,396.82Z" style="fill:#263238"></path><path d="M374.73,379.2c.08.13,1.06-.36,2.18-1.1s2-1.43,1.88-1.56a5.74,5.74,0,0,0-2.18,1.1C375.49,378.38,374.65,379.08,374.73,379.2Z" style="fill:#263238"></path><path d="M361.72,351.92c.1.11.83-.36,1.65-1.05s1.39-1.35,1.29-1.47-.84.36-1.65,1.05S361.62,351.8,361.72,351.92Z" style="fill:#263238"></path><path d="M369,333.33c-.11.1.56.94,1.49,1.86s1.78,1.58,1.89,1.48-.57-.95-1.5-1.87S369.07,333.22,369,333.33Z" style="fill:#263238"></path><path d="M361,318.72c-.08.13.56.64,1.43,1.14s1.64.8,1.71.67-.57-.65-1.44-1.14S361.1,318.59,361,318.72Z" style="fill:#263238"></path><path d="M369.31,386.42c.14.06.56-.6.93-1.47s.57-1.63.43-1.69-.56.6-.93,1.47S369.17,386.36,369.31,386.42Z" style="fill:#263238"></path><path d="M402.56,288a7.78,7.78,0,0,0,2.95.12,8.19,8.19,0,0,0,2.93-.42,7.82,7.82,0,0,0-3-.12A8.11,8.11,0,0,0,402.56,288Z" style="fill:#263238"></path><path d="M403.49,271.07a7.54,7.54,0,0,0,2.73-.83,7.43,7.43,0,0,0,2.53-1.33,7.62,7.62,0,0,0-2.74.83A7.44,7.44,0,0,0,403.49,271.07Z" style="fill:#263238"></path><path d="M401.94,250a6.85,6.85,0,0,0,5.26-2.78,29.28,29.28,0,0,0-2.57,1.51C403.2,249.52,401.91,249.88,401.94,250Z" style="fill:#263238"></path><path d="M398.05,240.2c.14.08.85-1,1.6-2.36a7.3,7.3,0,0,0,1.11-2.63,7.81,7.81,0,0,0-1.59,2.37A7.66,7.66,0,0,0,398.05,240.2Z" style="fill:#263238"></path><path d="M384.64,237.32a8.48,8.48,0,0,0,1.69,2.47c1,1.26,2,2.21,2.1,2.11a8,8,0,0,0-1.68-2.46C385.7,238.17,384.76,237.23,384.64,237.32Z" style="fill:#263238"></path><path d="M381.24,251.85c-.09.13.81.92,2,1.77a6.49,6.49,0,0,0,2.33,1.31c.09-.12-.82-.91-2-1.76A6.91,6.91,0,0,0,381.24,251.85Z" style="fill:#263238"></path><path d="M379.66,272a5.53,5.53,0,0,0,2.25.89,5.47,5.47,0,0,0,2.4.35,5.61,5.61,0,0,0-2.25-.89A5.47,5.47,0,0,0,379.66,272Z" style="fill:#263238"></path><path d="M380.6,289.07a7.28,7.28,0,0,0,2.79.13,7.45,7.45,0,0,0,2.78-.42,14.26,14.26,0,0,0-5.57.29Z" style="fill:#263238"></path><path d="M380.28,306.35a9.71,9.71,0,0,0,2.65,1.78,9.5,9.5,0,0,0,2.92,1.31,9.47,9.47,0,0,0-2.65-1.79A9.22,9.22,0,0,0,380.28,306.35Z" style="fill:#263238"></path><path d="M404.12,314.75a8.31,8.31,0,0,0,3-.36,8.16,8.16,0,0,0,2.88-.89,16.2,16.2,0,0,0-5.87,1.25Z" style="fill:#263238"></path><path d="M403.54,329.8a9.84,9.84,0,0,0,2.29,2.24,9.63,9.63,0,0,0,2.63,1.82c.1-.12-.92-1.12-2.28-2.24A9.18,9.18,0,0,0,403.54,329.8Z" style="fill:#263238"></path><path d="M403.19,374.75a23.94,23.94,0,0,0,5.58-4.64,11.93,11.93,0,0,0-3,2.11A12.46,12.46,0,0,0,403.19,374.75Z" style="fill:#263238"></path><path d="M403.8,387.41c-.1.12.72,1,1.83,1.92a6.6,6.6,0,0,0,2.19,1.49c.1-.12-.72-1-1.83-1.91A6.73,6.73,0,0,0,403.8,387.41Z" style="fill:#263238"></path><path d="M381.55,359.22a9.24,9.24,0,0,0,2.32,2.07,9.07,9.07,0,0,0,2.64,1.63,9.08,9.08,0,0,0-2.31-2.07A8.54,8.54,0,0,0,381.55,359.22Z" style="fill:#263238"></path><path d="M381.21,337.6a5.15,5.15,0,0,0,2.55,1.69,5,5,0,0,0,3,.47,28.85,28.85,0,0,0-2.82-1A24.72,24.72,0,0,0,381.21,337.6Z" style="fill:#263238"></path><path d="M380.89,321.8a11.49,11.49,0,0,0,4.65-1.85,11.49,11.49,0,0,0-4.65,1.85Z" style="fill:#263238"></path><path d="M379.69,401.89a9.92,9.92,0,0,0,2.83,1.64,10.22,10.22,0,0,0,3.06,1.14,9.92,9.92,0,0,0-2.83-1.64A10.22,10.22,0,0,0,379.69,401.89Z" style="fill:#263238"></path><path d="M403.78,301.69a13.05,13.05,0,0,0,3-2.27,12.6,12.6,0,0,0,2.6-2.69,13.17,13.17,0,0,0-3,2.28A13,13,0,0,0,403.78,301.69Z" style="fill:#263238"></path><path d="M379.05,293.66a8.83,8.83,0,0,0,2.48,1.93,9,9,0,0,0,2.78,1.47,9.4,9.4,0,0,0-2.49-1.93A9.09,9.09,0,0,0,379.05,293.66Z" style="fill:#263238"></path><path d="M404.42,259.93a4.54,4.54,0,0,0,2.2,0c1.2-.17,2.15-.43,2.13-.58a4.57,4.57,0,0,0-2.21,0C405.35,259.52,404.4,259.78,404.42,259.93Z" style="fill:#263238"></path><path d="M380.9,261.17c0,.14.88.61,2.08,1a5.07,5.07,0,0,0,2.25.52c0-.14-.87-.61-2.07-1A5.12,5.12,0,0,0,380.9,261.17Z" style="fill:#263238"></path><path d="M393.26,298a8,8,0,0,0,1.64,2.49c1,1.28,2,2.24,2.08,2.15a8.17,8.17,0,0,0-1.65-2.49A8.68,8.68,0,0,0,393.26,298Z" style="fill:#263238"></path><path d="M393.28,281.9c.08.12,1.09-.48,1.9-1.66a3.68,3.68,0,0,0,.88-2.36c-.15-.05-.57,1-1.33,2.05S393.18,281.78,393.28,281.9Z" style="fill:#263238"></path><path d="M393.59,259c-.1.12.76.95,1.59,2.13a18.34,18.34,0,0,0,1.5,2.2,4.28,4.28,0,0,0-1.05-2.52C394.74,259.56,393.67,258.89,393.59,259Z" style="fill:#263238"></path><path d="M395.44,321.2c.15-.05-.08-1.06-.51-2.26s-.89-2.12-1-2.07.09,1.06.51,2.26S395.3,321.25,395.44,321.2Z" style="fill:#263238"></path><path d="M398.92,354.34a28.2,28.2,0,0,0,3.44-7.1,28.2,28.2,0,0,0-3.44,7.1Z" style="fill:#263238"></path><path d="M392.73,359.53a17.06,17.06,0,0,0,1.78,4,17.32,17.32,0,0,0,2.27,3.73,36.14,36.14,0,0,0-4-7.72Z" style="fill:#263238"></path><path d="M393,394.87a13.06,13.06,0,0,0,2-3.27,13.81,13.81,0,0,0,1.48-3.53,13.44,13.44,0,0,0-2,3.28A13.85,13.85,0,0,0,393,394.87Z" style="fill:#263238"></path><path d="M395.13,405.67a7.61,7.61,0,0,0,1.32,2.47c.86,1.28,1.65,2.26,1.78,2.17a7.16,7.16,0,0,0-1.32-2.47C396.06,406.56,395.26,405.59,395.13,405.67Z" style="fill:#263238"></path><g style="opacity:0.1"><path d="M390.21,241.79c-.76,0-1.37,40.06-1.37,89.47s.61,89.46,1.37,89.46,1.37-40,1.37-89.46S391,241.79,390.21,241.79Z"></path></g><g style="opacity:0.1"><path d="M365.39,314c-.38,0-.82,4.57-1,12s-.19,17.61-.39,28.88A69.9,69.9,0,0,0,365.34,371a33.36,33.36,0,0,0,2.33,6.8,50,50,0,0,0,3,5.4,13,13,0,0,0,3.66,3.82,12.08,12.08,0,0,0,3.61,1.59c2.07.54,3.23.55,3.27.39s-1-.58-2.9-1.39a13.55,13.55,0,0,1-3.08-1.83,12.34,12.34,0,0,1-2.91-3.6,58.06,58.06,0,0,1-2.58-5.33,34,34,0,0,1-1.93-6.39,77,77,0,0,1-1.11-15.55c.2-11.3-.15-21.54-.41-28.92S365.77,314,365.39,314Z"></path></g><path d="M365.91,431.05h57a6.13,6.13,0,0,0,6.13-6.14h0a6.12,6.12,0,0,0-6.13-6.13h-57a6.13,6.13,0,0,0-6.13,6.13h0A6.14,6.14,0,0,0,365.91,431.05Z" style="fill:#003459"></path><polygon points="423.85 428.62 415.24 465.29 373.74 465.29 364.95 428.62 423.85 428.62" style="fill:#003459"></polygon><path d="M365.91,431.08c0,.13,13,.23,29,.23s29-.1,29-.23-13-.23-29-.23S365.91,431,365.91,431.08Z" style="fill:#263238"></path><path d="M371.08,450.48s0-.05,0-.16a2.22,2.22,0,0,1,0-.47,5.78,5.78,0,0,1,.33-1.77,6.82,6.82,0,0,1,1.46-2.46,6.41,6.41,0,0,1,3.28-1.9,7,7,0,0,1,4.56.51,12.66,12.66,0,0,1,3.86,3.57,14.57,14.57,0,0,0,1.93,2,4.23,4.23,0,0,0,2.54,1,4.08,4.08,0,0,0,2.63-1,15.64,15.64,0,0,0,2.15-2.22,19.9,19.9,0,0,1,2.2-2.3,5.57,5.57,0,0,1,2.85-1.33,6.18,6.18,0,0,1,3,.41,11.16,11.16,0,0,1,2.52,1.39c1.5,1.12,2.71,2.38,4,3.35a8.44,8.44,0,0,0,4,1.86,7.86,7.86,0,0,0,3.62-.34,8.27,8.27,0,0,0,2.44-1.33,9.81,9.81,0,0,0,1.64-1.74,3,3,0,0,1-.31.55,6.91,6.91,0,0,1-1.21,1.34,8.09,8.09,0,0,1-6.23,1.87,8.76,8.76,0,0,1-4.19-1.88c-1.33-1-2.57-2.24-4-3.3a7.6,7.6,0,0,0-5.19-1.7,5.2,5.2,0,0,0-2.6,1.24,18.21,18.21,0,0,0-2.13,2.24,17.07,17.07,0,0,1-2.22,2.28,4.58,4.58,0,0,1-2.95,1.12,4.71,4.71,0,0,1-2.83-1.11,15.35,15.35,0,0,1-2-2.07,12.08,12.08,0,0,0-3.7-3.5,6.63,6.63,0,0,0-4.3-.54,6.21,6.21,0,0,0-3.15,1.75,6.93,6.93,0,0,0-1.48,2.33A8.83,8.83,0,0,0,371.08,450.48Z" style="fill:#fff"></path></g><g id="freepik--Device--inject-38"><path d="M318.3,416.11l-117-.07c-14.07,0-25.47-12-25.46-26.79l0-308.17c0-14.79,11.42-26.78,25.5-26.77l117,.07c14.07,0,25.47,12,25.46,26.78l-.05,308.18C343.79,404.13,332.38,416.12,318.3,416.11Z" style="fill:#263238"></path><path d="M318.26,65.28H295.59a5.8,5.8,0,0,0-5.51,6v4.32a5.79,5.79,0,0,1-5.51,6l-44.21,0a5.8,5.8,0,0,1-5.5-6.06V71.28a5.8,5.8,0,0,0-5.51-6H201.53c-9.86,0-17.85,8.39-17.86,18.75l0,300.8c0,10.35,8,18.75,17.83,18.76l116.74.07c9.85,0,17.85-8.39,17.85-18.75L336.1,84C336.1,73.68,328.12,65.29,318.26,65.28Z" style="fill:#fff"></path><path d="M258.54,109.26h-6.78l-1.34,3.14h-2.6l6.11-13.56h2.48l6.12,13.56h-2.64Zm-.84-2-2.55-5.93-2.54,5.93Z" style="fill:#263238"></path><path d="M278.35,112.09H266a.9.9,0,0,1,0-1.79h12.39a.9.9,0,0,1,0,1.79Z" style="fill:#263238"></path><path d="M272.16,112.09a.9.9,0,0,1-.9-.9v-3.34a.9.9,0,1,1,1.79,0v3.34A.89.89,0,0,1,272.16,112.09Z" style="fill:#263238"></path><path d="M266.28,122.75a.9.9,0,0,1-.83-.55.91.91,0,0,1,.48-1.18c.08,0,8.29-3.54,9-9.93a.9.9,0,0,1,1.78.2c-.83,7.44-9.72,11.23-10.1,11.39A.83.83,0,0,1,266.28,122.75Z" style="fill:#263238"></path><path d="M276.09,122.75a.73.73,0,0,1-.25,0c-4.59-1.34-8.22-7.32-8.38-7.58a.9.9,0,0,1,1.54-.92c0,.06,3.43,5.64,7.34,6.78a.9.9,0,0,1-.25,1.76Z" style="fill:#263238"></path><rect x="192.2" y="239.43" width="135.33" height="88.52" rx="4.14" style="fill:#ebebeb"></rect><circle cx="313.34" cy="312.45" r="7.38" style="fill:#003459"></circle><path d="M314.07,310.37a.73.73,0,1,1-.73-.73A.73.73,0,0,1,314.07,310.37Z" style="fill:#fff"></path><path d="M314.07,312.45a.73.73,0,1,1-1.46,0,.73.73,0,1,1,1.46,0Z" style="fill:#fff"></path><path d="M314.07,314.53a.73.73,0,1,1-.73-.73A.73.73,0,0,1,314.07,314.53Z" style="fill:#fff"></path><circle cx="295.98" cy="312.45" r="7.38" style="fill:#003459"></circle><path d="M200.86,258.45l.36-.76a3.55,3.55,0,0,0,2.27.79c1.18,0,1.69-.46,1.69-1.06,0-1.67-4.15-.61-4.15-3.16,0-1.06.82-2,2.62-2a4.06,4.06,0,0,1,2.21.61l-.33.78a3.53,3.53,0,0,0-1.88-.56c-1.16,0-1.66.49-1.66,1.09,0,1.68,4.15.63,4.15,3.14,0,1.05-.84,1.95-2.65,1.95A4.08,4.08,0,0,1,200.86,258.45Z" style="fill:#263238"></path><path d="M212.82,256.64a2.52,2.52,0,0,1-2.63,2.65,2.21,2.21,0,0,1-1.81-.84v2.69h-.94V254h.9v.83a2.21,2.21,0,0,1,1.85-.87A2.52,2.52,0,0,1,212.82,256.64Zm-.95,0a1.75,1.75,0,1,0-1.76,1.83A1.72,1.72,0,0,0,211.87,256.64Z" style="fill:#263238"></path><path d="M218.19,256.1v3.14h-.89v-.69a1.92,1.92,0,0,1-1.71.74c-1.17,0-1.92-.62-1.92-1.52s.54-1.52,2.09-1.52h1.49v-.19c0-.79-.46-1.25-1.39-1.25a2.59,2.59,0,0,0-1.65.56l-.39-.71A3.46,3.46,0,0,1,216,254C217.39,254,218.19,254.68,218.19,256.1Zm-.94,1.55v-.73H215.8c-.93,0-1.19.37-1.19.81s.43.84,1.14.84A1.5,1.5,0,0,0,217.25,257.65Z" style="fill:#263238"></path><path d="M224.87,256.25v3h-.94v-2.88c0-1-.51-1.52-1.41-1.52a1.54,1.54,0,0,0-1.64,1.72v2.68h-.94V254h.9v.79a2.22,2.22,0,0,1,1.87-.83A2,2,0,0,1,224.87,256.25Z" style="fill:#263238"></path><path d="M226.45,252.44a.62.62,0,0,1,.64-.62.61.61,0,1,1-.64.62Zm.16,1.6h.95v5.2h-.95Z" style="fill:#263238"></path><path d="M228.69,258.69l.4-.75a3.26,3.26,0,0,0,1.82.54c.87,0,1.23-.26,1.23-.7,0-1.17-3.28-.16-3.28-2.23,0-.93.83-1.55,2.16-1.55a3.74,3.74,0,0,1,1.9.47l-.41.74a2.73,2.73,0,0,0-1.49-.41c-.83,0-1.23.3-1.23.71,0,1.23,3.29.23,3.29,2.25,0,.94-.86,1.53-2.24,1.53A3.79,3.79,0,0,1,228.69,258.69Z" style="fill:#263238"></path><path d="M239.19,256.25v3h-.94v-2.88c0-1-.51-1.52-1.4-1.52a1.54,1.54,0,0,0-1.65,1.72v2.68h-.94V252h.94v2.81A2.25,2.25,0,0,1,237,254,2,2,0,0,1,239.19,256.25Z" style="fill:#263238"></path><path d="M316.3,289.79c0,.15-25.57.26-57.11.26s-57.11-.11-57.11-.26,25.56-.26,57.11-.26S316.3,289.65,316.3,289.79Z" style="fill:#e0e0e0"></path><path d="M206.28,279.31h-2.35v-.85h5.67v.85h-2.35v6h-1Z" style="fill:#e0e0e0"></path><path d="M214.67,283h-4.21a1.75,1.75,0,0,0,1.88,1.52,2,2,0,0,0,1.5-.63l.51.61a2.83,2.83,0,0,1-4.83-1.81,2.54,2.54,0,0,1,2.6-2.65,2.51,2.51,0,0,1,2.57,2.68C214.69,282.82,214.68,282.94,214.67,283Zm-4.21-.68h3.33a1.62,1.62,0,0,0-1.67-1.48A1.6,1.6,0,0,0,210.46,282.35Z" style="fill:#e0e0e0"></path><path d="M219.16,285.31l-1.5-2-1.52,2h-1l2-2.65-1.95-2.54h1.05l1.43,1.87,1.42-1.87h1l-2,2.54,2.07,2.65Z" style="fill:#e0e0e0"></path><path d="M224.18,285a1.81,1.81,0,0,1-1.14.36,1.48,1.48,0,0,1-1.64-1.62v-2.86h-.88v-.77h.88V279h.94v1.14h1.49v.77h-1.49v2.82a.76.76,0,0,0,.81.87,1.15,1.15,0,0,0,.73-.25Z" style="fill:#e0e0e0"></path><rect x="294.88" y="308.61" width="3.96" height="5.51" rx="0.37" style="fill:#fff"></rect><path d="M297.57,315.5h-3.22a.61.61,0,0,1-.62-.61v-4.78a.61.61,0,0,1,.62-.61h3.22a.61.61,0,0,1,.62.61v4.78A.61.61,0,0,1,297.57,315.5Zm-3.22-5.5a.11.11,0,0,0-.12.11v4.78a.11.11,0,0,0,.12.11h3.22a.12.12,0,0,0,.12-.11v-4.78a.12.12,0,0,0-.12-.11Z" style="fill:#fff"></path><path d="M242.69,255.21h3.84a.45.45,0,0,1,.37.71l-1.79,2.47a.45.45,0,0,1-.71,0l-2.06-2.48A.45.45,0,0,1,242.69,255.21Z" style="fill:#263238"></path><rect x="308.1" y="252.4" width="6.69" height="1.54" rx="0.37" style="fill:#263238"></rect><path d="M314,253.17v-1.83a.28.28,0,0,1,.45-.23l1.22.87,1.35,1a.29.29,0,0,1,0,.47l-1.35,1-1.22.87A.29.29,0,0,1,314,255Z" style="fill:#263238"></path><rect x="304.74" y="254.92" width="6.69" height="1.54" rx="0.37" transform="translate(616.17 511.38) rotate(180)" style="fill:#263238"></rect><path d="M305.57,255.69v1.83a.28.28,0,0,1-.45.23l-1.22-.87-1.35-1a.29.29,0,0,1,0-.47l1.35-1,1.22-.87a.29.29,0,0,1,.45.24Z" style="fill:#263238"></path><rect x="192.2" y="139.16" width="135.33" height="88.52" rx="4.14" style="fill:#ebebeb"></rect><circle cx="294.03" cy="209.09" r="7.38" style="fill:#003459"></circle><path d="M294,210.74a1.33,1.33,0,0,1-1.33-1.33v-2.9a1.33,1.33,0,1,1,2.66,0v2.9A1.32,1.32,0,0,1,294,210.74Zm0-5.28a1,1,0,0,0-1,1v2.9a1.06,1.06,0,0,0,2.11,0v-2.9A1.06,1.06,0,0,0,294,205.46Z" style="fill:#fff"></path><path d="M294,211.68a2.39,2.39,0,0,1-1.86-.74,3.59,3.59,0,0,1-.71-2.47.14.14,0,0,1,.15-.13.15.15,0,0,1,.13.16,3.33,3.33,0,0,0,.63,2.25,2.14,2.14,0,0,0,1.66.65,2.24,2.24,0,0,0,1.69-.65,3.49,3.49,0,0,0,.76-2.26.15.15,0,0,1,.14-.15.14.14,0,0,1,.14.14,3.76,3.76,0,0,1-.84,2.47A2.53,2.53,0,0,1,294,211.68Z" style="fill:#fff"></path><path d="M294,213.72a.15.15,0,0,1-.14-.14v-2a.14.14,0,0,1,.14-.14.14.14,0,0,1,.14.14v2A.14.14,0,0,1,294,213.72Z" style="fill:#fff"></path><circle cx="274.88" cy="209.09" r="7.38" style="fill:#003459"></circle><path d="M277.78,207.32H276.7V207a.48.48,0,0,0-.49-.47h-2a.48.48,0,0,0-.49.47v.37h-1.07a.6.6,0,0,0-.62.59v3.2a.6.6,0,0,0,.62.58h5.17a.6.6,0,0,0,.61-.58v-3.2A.6.6,0,0,0,277.78,207.32Z" style="fill:#fff"></path><path d="M275.19,210.88a1.51,1.51,0,1,1,1.51-1.51A1.52,1.52,0,0,1,275.19,210.88Zm0-2.77a1.26,1.26,0,1,0,1.26,1.26A1.26,1.26,0,0,0,275.19,208.11Z" style="fill:#003459"></path><circle cx="313.23" cy="209.42" r="7.38" transform="translate(56.24 484.96) rotate(-80.76)" style="fill:#003459"></circle><path d="M309.76,208.45v1.75a.13.13,0,0,0,.14.13h1a.16.16,0,0,1,.09,0l1.5,1.18a.14.14,0,0,0,.22-.11v-4.08a.14.14,0,0,0-.22-.11l-1.45,1-.08,0h-1A.13.13,0,0,0,309.76,208.45Z" style="fill:#fff"></path><path d="M315.46,212.37a.18.18,0,0,1-.13-.28,4,4,0,0,0,1.19-2.88,3.91,3.91,0,0,0-1.17-2.45.17.17,0,1,1,.22-.25,4.17,4.17,0,0,1,1.29,2.68,4.32,4.32,0,0,1-1.27,3.12A.18.18,0,0,1,315.46,212.37Z" style="fill:#fff"></path><path d="M314.53,211.54a.17.17,0,0,1-.12,0,.17.17,0,0,1,0-.24,2.47,2.47,0,0,0,.9-1.81,3.06,3.06,0,0,0-.9-2,.17.17,0,0,1,0-.24.16.16,0,0,1,.23,0,3.32,3.32,0,0,1,1,2.21,2.81,2.81,0,0,1-1,2.06A.15.15,0,0,1,314.53,211.54Z" style="fill:#fff"></path><path d="M313.7,210.69a.21.21,0,0,1-.12-.05.17.17,0,0,1,0-.24,1.63,1.63,0,0,0,0-2.24.17.17,0,0,1,.25-.23,2,2,0,0,1,0,2.71A.17.17,0,0,1,313.7,210.69Z" style="fill:#fff"></path><path d="M206.46,153.32v.85h-5v-6.86h4.84v.86h-3.86v2.1h3.44v.84h-3.44v2.21Z" style="fill:#003459"></path><path d="M212.85,151.18v3h-.94v-2.88c0-1-.51-1.52-1.4-1.52a1.55,1.55,0,0,0-1.65,1.73v2.67h-.94V149h.9v.78a2.22,2.22,0,0,1,1.87-.83A2,2,0,0,1,212.85,151.18Z" style="fill:#003459"></path><path d="M219.59,149v4.49a2.36,2.36,0,0,1-2.69,2.66,3.85,3.85,0,0,1-2.48-.77l.45-.73a3.17,3.17,0,0,0,2,.68c1.22,0,1.78-.57,1.78-1.75v-.41a2.38,2.38,0,0,1-1.87.81,2.52,2.52,0,1,1,0-5,2.37,2.37,0,0,1,1.92.85V149Zm-.92,2.46a1.79,1.79,0,1,0-1.78,1.69A1.66,1.66,0,0,0,218.67,151.44Z" style="fill:#003459"></path><path d="M221.39,146.9h.94v7.27h-.94Z" style="fill:#003459"></path><path d="M224,147.37a.61.61,0,0,1,.63-.61.6.6,0,0,1,.64.59.61.61,0,0,1-.64.63A.6.6,0,0,1,224,147.37Zm.16,1.61h.95v5.19h-.95Z" style="fill:#003459"></path><path d="M226.2,153.62l.4-.74a3.35,3.35,0,0,0,1.82.54c.87,0,1.23-.27,1.23-.71,0-1.16-3.28-.15-3.28-2.22,0-.93.83-1.56,2.16-1.56a3.84,3.84,0,0,1,1.9.47l-.41.75a2.67,2.67,0,0,0-1.5-.42c-.82,0-1.22.31-1.22.72,0,1.22,3.29.22,3.29,2.24,0,.94-.86,1.54-2.24,1.54A3.71,3.71,0,0,1,226.2,153.62Z" style="fill:#003459"></path><path d="M236.7,151.18v3h-.94v-2.88c0-1-.51-1.52-1.4-1.52a1.55,1.55,0,0,0-1.65,1.73v2.67h-.94V146.9h.94v2.81a2.25,2.25,0,0,1,1.83-.78A2,2,0,0,1,236.7,151.18Z" style="fill:#003459"></path><path d="M316.3,184.73c0,.14-25.57.26-57.11.26s-57.11-.12-57.11-.26,25.56-.26,57.11-.26S316.3,184.59,316.3,184.73Z" style="fill:#e0e0e0"></path><path d="M206.28,174.24h-2.35v-.85h5.67v.85h-2.35v6h-1Z" style="fill:#e0e0e0"></path><path d="M214.67,178h-4.21a1.75,1.75,0,0,0,1.88,1.52,2,2,0,0,0,1.5-.63l.51.61a2.82,2.82,0,0,1-4.83-1.82,2.54,2.54,0,0,1,2.6-2.64,2.51,2.51,0,0,1,2.57,2.67C214.69,177.76,214.68,177.88,214.67,178Zm-4.21-.68h3.33a1.63,1.63,0,0,0-1.67-1.49A1.61,1.61,0,0,0,210.46,177.29Z" style="fill:#e0e0e0"></path><path d="M219.16,180.25l-1.5-2-1.52,2h-1l2-2.65-1.95-2.54h1.05l1.43,1.87,1.42-1.87h1l-2,2.54,2.07,2.65Z" style="fill:#e0e0e0"></path><path d="M224.18,180a1.81,1.81,0,0,1-1.14.36,1.48,1.48,0,0,1-1.64-1.63v-2.85h-.88v-.77h.88v-1.14h.94v1.14h1.49v.77h-1.49v2.81a.77.77,0,0,0,.81.88,1.15,1.15,0,0,0,.73-.25Z" style="fill:#e0e0e0"></path><path d="M242.69,150.14h3.84a.45.45,0,0,1,.37.71l-1.79,2.48a.45.45,0,0,1-.71,0l-2.06-2.47A.45.45,0,0,1,242.69,150.14Z" style="fill:#003459"></path><rect x="309.55" y="149.67" width="6.69" height="1.54" rx="0.37" style="fill:#263238"></rect><path d="M315.41,150.44v-1.83a.28.28,0,0,1,.45-.24l1.22.87,1.35,1a.29.29,0,0,1,0,.47l-1.35,1-1.22.87a.28.28,0,0,1-.45-.24Z" style="fill:#263238"></path><rect x="306.19" y="152.18" width="6.69" height="1.54" rx="0.37" transform="translate(619.07 305.9) rotate(180)" style="fill:#263238"></rect><path d="M307,153v1.83a.29.29,0,0,1-.45.24l-1.22-.87-1.35-1a.29.29,0,0,1,0-.47l1.35-1,1.22-.87a.28.28,0,0,1,.45.23Z" style="fill:#263238"></path><path d="M199.06,106.14h10.58a.63.63,0,0,0,0-1.25H199.06a.63.63,0,0,0,0,1.25Z" style="fill:#263238"></path><path d="M199.06,110.14h14.78a.63.63,0,0,0,0-1.25H199.06a.63.63,0,0,0,0,1.25Z" style="fill:#263238"></path><path d="M199.06,114.15h10.58a.63.63,0,0,0,0-1.25H199.06a.63.63,0,0,0,0,1.25Z" style="fill:#263238"></path><path d="M208.33,379.79v8.83a1,1,0,0,1-1.49.82L199.9,385a1,1,0,0,1,0-1.64l6.94-4.42A1,1,0,0,1,208.33,379.79Z" style="fill:#e0e0e0"></path><path d="M265.36,384.13a6.09,6.09,0,1,1-6.09-6.1A6.09,6.09,0,0,1,265.36,384.13Z" style="fill:#e0e0e0"></path><rect x="309.04" y="378.82" width="11.23" height="11.25" rx="1.87" style="fill:#e0e0e0"></rect></g><g id="freepik--Character--inject-38"><polygon points="102.18 454.42 103.69 445.82 118.93 445.79 117.27 455.78 111.82 459.06 102.18 454.42" style="fill:#ae7461"></polygon><path d="M117.59,453.82v1s16.63,6.87,16.78,10l-33.15-.49.61-11A19,19,0,0,0,117.59,453.82Z" style="fill:#455a64"></path><g style="opacity:0.6000000000000001"><path d="M105.14,456.9a1.36,1.36,0,0,0-1,1.54,1.3,1.3,0,0,0,1.51,1,1.44,1.44,0,0,0,1-1.63,1.36,1.36,0,0,0-1.68-.83" style="fill:#fff"></path></g><g style="opacity:0.6000000000000001"><path d="M101.22,464.35l.14-2.65,31.73,1.44s1.46.66,1.28,1.7Z" style="fill:#fff"></path></g><path d="M117.7,454.9c0,.16-.81.22-1.62.73s-1.24,1.18-1.38,1.12.1-1,1.09-1.6S117.74,454.75,117.7,454.9Z" style="fill:#263238"></path><path d="M121.16,456.39c0,.16-.67.42-1.23,1.1s-.73,1.4-.89,1.39-.25-.93.46-1.76S121.16,456.23,121.16,456.39Z" style="fill:#263238"></path><path d="M123.07,460.58c-.14,0-.36-.78.07-1.66s1.19-1.22,1.26-1.09-.41.61-.75,1.33S123.24,460.57,123.07,460.58Z" style="fill:#263238"></path><polygon points="103.46 435.3 100.83 460.89 89.1 458.94 88.84 433.75 103.46 435.3" style="fill:#ae7461"></polygon><path d="M89.15,454.09s7.76,6.54,12.26,2l.82,2.51,3.08,17.62a2.29,2.29,0,0,1-1.59,2.63,2.36,2.36,0,0,1-2.38-.68c-3.11-3.5-14.51-16.4-14.23-18l.45-4.21a2.15,2.15,0,0,1,1.59-1.84Z" style="fill:#455a64"></path><g style="opacity:0.6000000000000001"><path d="M103.3,478.88,87.24,458.67l-.09.92a2.57,2.57,0,0,0,.66,2.12c1.26,2,4.85,6.65,13.47,16.4a2.33,2.33,0,0,0,2,.77Z" style="fill:#fff"></path></g><g style="opacity:0.6000000000000001"><path d="M90.11,456.18a1.32,1.32,0,0,1,.22,1.79,1.35,1.35,0,0,1-1.82.22,1.29,1.29,0,1,1,1.7-1.92" style="fill:#fff"></path></g><path d="M99.07,468.91a6.92,6.92,0,0,1,2.11-1.51,7.09,7.09,0,0,1,2.61-.24c0-.06-.24-.25-.76-.37a3.68,3.68,0,0,0-2,.16,3.49,3.49,0,0,0-1.62,1.2C99.08,468.57,99,468.89,99.07,468.91Z" style="fill:#263238"></path><path d="M100.39,472a18.64,18.64,0,0,1,2.06-.76,18.75,18.75,0,0,1,2.21-.07,2.59,2.59,0,0,0-2.31-.4C101,471,100.28,471.9,100.39,472Z" style="fill:#263238"></path><path d="M96.45,464.91a22.66,22.66,0,0,1,3.1-1.38,22.18,22.18,0,0,1,3.38-.44,5.16,5.16,0,0,0-3.52,0A5.07,5.07,0,0,0,96.45,464.91Z" style="fill:#263238"></path><path d="M96.55,459.64c0,.14,1.33-.25,2.94-.16s2.85.58,2.91.45a5.85,5.85,0,0,0-5.85-.29Z" style="fill:#263238"></path><path d="M100.41,459.52a2,2,0,0,0,0-.82,5.58,5.58,0,0,0-.88-2.1,2.61,2.61,0,0,0-1.23-1.12.92.92,0,0,0-1,.29,1.39,1.39,0,0,0-.26,1,3.24,3.24,0,0,0,3.11,2.68,3.75,3.75,0,0,0,3.5-2.23,1.24,1.24,0,0,0,0-1.06.91.91,0,0,0-1-.38,3.17,3.17,0,0,0-1.4.87,6.15,6.15,0,0,0-1.36,1.82,1.75,1.75,0,0,0-.27.78,9.83,9.83,0,0,1,1.87-2.35,2.84,2.84,0,0,1,1.24-.73.47.47,0,0,1,.53.2.82.82,0,0,1,0,.7,3.35,3.35,0,0,1-3.06,1.9,2.81,2.81,0,0,1-2.67-2.24,1,1,0,0,1,.15-.71.51.51,0,0,1,.56-.17,2.44,2.44,0,0,1,1.06.93A8.57,8.57,0,0,1,100.41,459.52Z" style="fill:#263238"></path><path d="M151.13,258.22a109.2,109.2,0,0,1,6.13,33.61c.3,18.45-16.78,70.72-19.33,82.72-1.74,8.16-9.19,49-18.53,73.65l-14-.51s11.69-83,11.69-91.72-1.27-55-1.27-55l-3.1-35.26Z" style="fill:#263238"></path><path d="M81.47,255.61c1,.39,34.57,8.47,34.57,8.47s8.51,95.6,9,108.15-19.67,75.46-19.67,75.46H86.17s.82-40.32,3.74-53.15c3.38-14.87,6.55-18.18,5.13-26.24s-16.12-47-19.78-68.41S81.47,255.61,81.47,255.61Z" style="fill:#263238"></path><path d="M140.42,278.74a2.43,2.43,0,0,0-.72.07,18.51,18.51,0,0,0-1.91.45,25.73,25.73,0,0,0-5.93,2.61,25.33,25.33,0,0,0-5.07,4,18.68,18.68,0,0,0-1.29,1.48,2.43,2.43,0,0,0-.4.6c.06,0,.73-.72,1.93-1.84a30.11,30.11,0,0,1,5.08-3.86,30.56,30.56,0,0,1,5.78-2.69C139.44,279.05,140.44,278.82,140.42,278.74Z" style="fill:#455a64"></path><path d="M85.9,447.69l.33,0,1,0,3.82,0,14.39.07h.11l0-.1c2.29-7.76,5.21-17.78,8.49-29.33s7-24.59,10.43-38.54c.35-1.51.71-3,1-4.53a23.71,23.71,0,0,0,.38-4.59c0-3,0-6-.07-8.94-.11-5.86-.31-11.5-.5-16.88-.38-10.76-.81-20.45-1.19-28.58s-.72-14.71-1-19.26c-.14-2.25-.25-4-.33-5.23,0-.59-.08-1.05-.12-1.36s-.06-.46-.06-.46c.06,1.28.45,10.29,1.16,26.33.34,8.13.73,17.81,1.09,28.57.18,5.38.36,11,.47,16.88.06,2.93.11,5.91.07,8.93a23.52,23.52,0,0,1-.39,4.5c-.27,1.5-.63,3-1,4.52-3.42,13.92-7.16,27-10.38,38.53s-6.14,21.57-8.36,29.36l.14-.11L91,447.61l-3.82,0-1,0A1.19,1.19,0,0,0,85.9,447.69Z" style="fill:#455a64"></path><path d="M95.7,278.78c0,.09,1.59,0,4.14.09a35.23,35.23,0,0,1,9.72,2,39.3,39.3,0,0,1,5,2.25,34.78,34.78,0,0,1,3.77,2.39c2.06,1.51,3.19,2.63,3.26,2.56a5.76,5.76,0,0,0-.76-.82,11.1,11.1,0,0,0-1-.89c-.39-.34-.82-.73-1.34-1.11a31.76,31.76,0,0,0-3.76-2.51A32.67,32.67,0,0,0,104.35,279a30.9,30.9,0,0,0-4.5-.45c-.64,0-1.22,0-1.74,0s-1,0-1.3.07A5.13,5.13,0,0,0,95.7,278.78Z" style="fill:#455a64"></path><path d="M93.9,127.59a32.66,32.66,0,0,0,10.43,24.66l4.65-13.5" style="fill:#263238"></path><path d="M129,100.74a19.79,19.79,0,0,0-13.3-1.61,41.81,41.81,0,0,0-12.58,5.2,20.63,20.63,0,0,0-6,4.69c-2.9,3.66-5.77,9.66-6,14.32-.23,3.76,1.22,13.2,2.81,16.62,1.46,3.14,8.3,5.53,11.67,6.3l31-36A15.64,15.64,0,0,0,129,100.74Z" style="fill:#263238"></path><path d="M134.37,105.59l-7.43-1.32c4.06,9.66,5.16,31.77,7.48,42,2.74-4,9.1-16.06,8.76-20.88S143.19,104.77,134.37,105.59Z" style="fill:#263238"></path><path d="M138.61,121.35c-.48-7.41-5.41-16.5-12.81-15.71L108.7,110a12.69,12.69,0,0,0-9.54,11.68c0,.28,0-.07,0,.15l3.82,44.28,12.83,25.47h0l11.33-24.13c0-3.61,0-9.07,0-9.05s9.47-1.6,11.41-14C139.48,138.29,139.15,129.59,138.61,121.35Z" style="fill:#ae7461"></path><path d="M133.32,131.5a1.58,1.58,0,0,1-1.53,1.6,1.51,1.51,0,0,1-1.64-1.42,1.59,1.59,0,0,1,1.53-1.61A1.53,1.53,0,0,1,133.32,131.5Z" style="fill:#263238"></path><path d="M136.76,126.2c-.2.21-1.4-.68-3.11-.67s-3,.86-3.14.65.11-.46.65-.86a4.36,4.36,0,0,1,2.52-.78,4.14,4.14,0,0,1,2.47.79C136.68,125.73,136.85,126.11,136.76,126.2Z" style="fill:#263238"></path><path d="M119,131.5a1.58,1.58,0,0,1-1.53,1.6,1.5,1.5,0,0,1-1.63-1.42,1.59,1.59,0,0,1,1.52-1.61A1.51,1.51,0,0,1,119,131.5Z" style="fill:#263238"></path><path d="M120.55,126.2c-.2.21-1.4-.68-3.11-.67s-3,.86-3.14.65.11-.46.66-.86a4.32,4.32,0,0,1,2.51-.78,4.14,4.14,0,0,1,2.47.79C120.47,125.73,120.65,126.11,120.55,126.2Z" style="fill:#263238"></path><path d="M125.89,139.6a11.07,11.07,0,0,1,2.77-.5c.43,0,.84-.14.92-.44a2.2,2.2,0,0,0-.3-1.29L128,134.06c-1.8-4.72-3.11-8.6-2.92-8.67s1.81,3.69,3.61,8.41c.43,1.17.85,2.28,1.24,3.34a2.5,2.5,0,0,1,.23,1.71,1.14,1.14,0,0,1-.71.64,3.09,3.09,0,0,1-.74.1A10.74,10.74,0,0,1,125.89,139.6Z" style="fill:#263238"></path><path d="M110.71,154s4,8.49,16.4,7.31v-2.91A31.21,31.21,0,0,1,110.71,154Z" style="fill:#6f4439"></path><path d="M120,120c-.17.47-1.88.25-3.88.5s-3.62.79-3.88.38c-.12-.2.16-.64.81-1.09a6.52,6.52,0,0,1,2.88-1,6.6,6.6,0,0,1,3,.35C119.72,119.45,120.09,119.81,120,120Z" style="fill:#263238"></path><path d="M136.2,121c-.3.39-1.47,0-2.89,0s-2.61.27-2.89-.14c-.12-.19.07-.58.59-1a4,4,0,0,1,2.35-.64,4.06,4.06,0,0,1,2.31.77C136.17,120.39,136.33,120.79,136.2,121Z" style="fill:#263238"></path><path d="M135.26,110.06a5.45,5.45,0,0,0-4.81-3.08,10.59,10.59,0,0,0-5.7,1.66c-7.37,4.26-11.15,14.54-18.43,19-1.79,1.08-4.12.09-5.64,1.52s-2.51,3.73-1.67,5.64a16.91,16.91,0,0,1-2.52-4.27,5.83,5.83,0,0,1,.2-4.82c.63-1.09,1.74-1.92,2-3.14s-.16-2.2-.11-3.31a7.26,7.26,0,0,1,1.13-3.15,32.14,32.14,0,0,1,11.82-12.44,21,21,0,0,1,10.85-2.81,16,16,0,0,1,10.33,4.1c1.63,1.52,3.34,3.09,2.5,5.15" style="fill:#263238"></path><path d="M100.86,130.64c-.13-.35-6.58-2.68-6.67,4.18-.08,6.66,6.64,5.35,6.65,5.16S100.86,130.64,100.86,130.64Z" style="fill:#ae7461"></path><path d="M98.81,137.43s-.12.08-.31.17a1.12,1.12,0,0,1-.87,0A2.89,2.89,0,0,1,96.32,135a3.81,3.81,0,0,1,.35-1.65,1.32,1.32,0,0,1,.88-.89.59.59,0,0,1,.68.33c.09.18,0,.32.08.33s.14-.11.09-.39a.75.75,0,0,0-.26-.42.85.85,0,0,0-.64-.17,1.63,1.63,0,0,0-1.22,1,3.94,3.94,0,0,0-.42,1.85,3,3,0,0,0,1.67,2.89,1.25,1.25,0,0,0,1.06-.16C98.8,137.6,98.83,137.45,98.81,137.43Z" style="fill:#6f4439"></path><path d="M98.21,127.22a3.5,3.5,0,0,0,.4-.22c.25-.16.65-.38,1.12-.71a22.92,22.92,0,0,0,3.59-3.28,63.74,63.74,0,0,0,4.4-5.71,52.33,52.33,0,0,1,5.5-6.84,20.6,20.6,0,0,1,3.54-2.81,17.35,17.35,0,0,1,3.83-1.73,18.89,18.89,0,0,1,7.06-.87,18.14,18.14,0,0,1,4.73.93c.55.16,1,.35,1.23.45a2.78,2.78,0,0,0,.44.16,3.35,3.35,0,0,0-.41-.21,12.27,12.27,0,0,0-1.22-.52,17.63,17.63,0,0,0-4.75-1,19.11,19.11,0,0,0-7.16.82,17,17,0,0,0-3.9,1.75,21.25,21.25,0,0,0-3.61,2.84,51.67,51.67,0,0,0-5.51,6.9,68.91,68.91,0,0,1-4.33,5.73,24.87,24.87,0,0,1-3.5,3.32c-.46.35-.84.58-1.08.76A2.2,2.2,0,0,0,98.21,127.22Z" style="fill:#455a64"></path><path d="M99.88,129.11c-.1,1.82-.19,3.74.65,5.35s3,2.72,4.55,1.82c1.29-.74,1.67-2.39,1.89-3.87.63-4.24.92-8.53,1.59-12.76Z" style="fill:#263238"></path><path d="M121.69,142.84a3.3,3.3,0,0,0,1.65,5.16,2,2,0,0,0,1.24,0,2.77,2.77,0,0,0,1.32-1.72l.69-1.73a.75.75,0,0,0,.07-.6.8.8,0,0,0-.56-.33l-4.28-1" style="fill:#6f4439"></path><path d="M124.49,147.81a3.82,3.82,0,0,1-1.94-.25,3,3,0,0,1-1.71-1.38,2.3,2.3,0,0,1-.26-1.32,3.94,3.94,0,0,1,.34-1.37,3.63,3.63,0,0,1,.8-1.11l.12-.11.14,0c2.83,1,5,1.51,5,1.63a17.38,17.38,0,0,1-5.18-1.15l.25-.05a3,3,0,0,0-.68.95,2.74,2.74,0,0,0-.13,2.26,2.87,2.87,0,0,0,1.42,1.27C123.74,147.66,124.51,147.71,124.49,147.81Z" style="fill:#263238"></path><path d="M133.62,106.89s-.59-.11-1.66-.14a11.43,11.43,0,0,0-4.41.8,15.1,15.1,0,0,0-2.76,1.42,30.52,30.52,0,0,0-2.85,2.18,34.51,34.51,0,0,0-5.58,6c-.84,1.19-1.59,2.41-2.4,3.54a17.34,17.34,0,0,1-2.67,3,29.91,29.91,0,0,1-5.63,3.76c-1.71.9-3.13,1.53-4.11,2l-1.14.48a2.38,2.38,0,0,1-.41.15,1.41,1.41,0,0,1,.37-.21l1.11-.55c1-.48,2.37-1.15,4-2.07a31.13,31.13,0,0,0,5.53-3.79,17.06,17.06,0,0,0,2.6-3c.79-1.12,1.54-2.34,2.4-3.54a33.13,33.13,0,0,1,5.66-6.06,29.68,29.68,0,0,1,2.9-2.18,14.68,14.68,0,0,1,2.84-1.41,11.14,11.14,0,0,1,4.51-.7,9.07,9.07,0,0,1,1.23.17A3,3,0,0,1,133.62,106.89Z" style="fill:#455a64"></path><path d="M99.7,125a3.1,3.1,0,0,1-.59.4l-1.69,1-.57.33a2,2,0,0,1-.73.24.79.79,0,0,1-.45-.11.62.62,0,0,1-.25-.44,1.5,1.5,0,0,1,.32-.84l2-3.14.26.25a7,7,0,0,1-2.14,1.07,7.22,7.22,0,0,1-2.38.28,1.92,1.92,0,0,1-.61-.11.78.78,0,0,1-.51-.45.71.71,0,0,1,.11-.67,2.61,2.61,0,0,1,.38-.42,13.83,13.83,0,0,0,2.27-2.86,25.8,25.8,0,0,0,1.44-3.06,3.81,3.81,0,0,1-.21.89,12.45,12.45,0,0,1-1,2.31,13.52,13.52,0,0,1-2.25,3c-.25.24-.5.51-.4.72s.46.31.81.31a6.74,6.74,0,0,0,2.25-.27,6.44,6.44,0,0,0,2-1l.8-.58-.53.83-2,3.11a1.28,1.28,0,0,0-.28.65.31.31,0,0,0,.38.28,3.38,3.38,0,0,0,1.2-.49l1.74-.89A2.76,2.76,0,0,1,99.7,125Z" style="fill:#455a64"></path><path d="M165.4,201.81c.11-.63-2.09-8.1-6.63-19.23a36.43,36.43,0,0,0-6.7-10c-1.32-1.36-8.07-3.65-9.81-4.36L127,164.78s1.47,7.89-12.6,6.92c-10.48-.73-11.69-8.77-11.69-8.77s-21.35,2.5-26.39,7.29S64.8,201.87,64.8,201.87l21.59,5.49,1.85,31.15-7.37,16.64s18.3,14.83,41,14.84c13.42,0,29.6-10.92,29.6-10.92l-7-19.25,4-36.09Z" style="fill:#003459"></path><path d="M84.5,183.08c-.39-.06-.21,6,.23,13.35.22,3.7.46,7,.66,9.45.11,1.15.19,2.11.26,2.85a5.12,5.12,0,0,0,.15,1.05,6.62,6.62,0,0,0,0-1.06c0-.75-.08-1.71-.13-2.86-.15-2.49-.34-5.8-.56-9.45s-.39-6.95-.54-9.44A22.77,22.77,0,0,1,84.5,183.08Z" style="fill:#263238"></path><path d="M100.32,237.47a7.89,7.89,0,0,0,1.13.57c.36.18.82.38,1.35.59s1.14.47,1.83.7a47.18,47.18,0,0,0,4.87,1.46,51,51,0,0,0,6.13,1,51.69,51.69,0,0,0,6.21.24,47.77,47.77,0,0,0,5-.42c.72-.09,1.36-.22,1.92-.32s1.05-.2,1.44-.3a9,9,0,0,0,1.22-.32,7.21,7.21,0,0,0-1.24.18c-.4.07-.88.15-1.45.23s-1.21.19-1.92.25a49.24,49.24,0,0,1-5,.34,58.1,58.1,0,0,1-6.16-.26,54.75,54.75,0,0,1-6.09-1c-1.85-.43-3.5-.9-4.87-1.36-.69-.21-1.29-.45-1.83-.64s-1-.38-1.38-.53A8.56,8.56,0,0,0,100.32,237.47Z" style="fill:#263238"></path><path d="M109.53,171.75l-2.46,28a1.78,1.78,0,0,0,1.62,1.89l17.92,1.89a1.81,1.81,0,0,0,2-1.54l3.6-29.21a1.78,1.78,0,0,0-1.75-2l-19.06-.64A1.81,1.81,0,0,0,109.53,171.75Z" style="fill:#263238"></path><path d="M117.68,186.66c-.49,0-11.11,1.83-11.11,1.83l-15.06,7.58L84.19,206.5,91.71,220l4.11-11.66a19.39,19.39,0,0,0,6.88,1c3.23-.29,13.49-1,13.49-1l5.29-2.8s1.71-2.67,1.71-3.41a1.2,1.2,0,0,0-1.85-1c-1.08.59-8.48.71-10.33,0,0,0,10.8-.72,12.19-2.42s.93-3-.76-3-7.87.87-9.72.71-4.16-.16-4.62-1,.93-1.63.93-1.63l2-1.48s7.86-1.31,8.33-2.94A1.91,1.91,0,0,0,117.68,186.66Z" style="fill:#ae7461"></path><path d="M121.29,186.15s9,1.43,9.58,2,11.88,14,11.88,14l2.75,2.54-7.13,9.25-1.44-.84-10.14-5.33a16.65,16.65,0,0,0-3.22-1s-10.25-1.59-10.91-2.77-.28-1.47.48-1.65a61.18,61.18,0,0,1,8.25.76,22.12,22.12,0,0,0,4.09,0s-4.26-1-5.22-1.3-10.49-2.4-10.34-4,1.35-2.24,7.31-.67a44.19,44.19,0,0,0,10.06,1.58l-13.18-4.46s-5.31-1.66-3.6-3.12,13.1,1.59,13.1,1.59l5,1.84-1.41-2.93s-7.15-2.06-8.07-2.75c-1.13-.86-1.29-1.65-.43-2.35S121.29,186.15,121.29,186.15Z" style="fill:#ae7461"></path><path d="M163.44,202l-15,1.7-.41,3.69-3.44-3.61-6.24,10.08s2.21,6.89,3.4,10.7c3.18,10.2,8.37,21.61,14.77,21,7.68-.68,11.41-8.66,11.29-14.33C167.72,226.16,163.44,202,163.44,202Z" style="fill:#ae7461"></path><path d="M66.52,202.3l13.54,3.33,4.13.87L88,201.07l6.11,11.6s-2.23,6.89-3.43,10.69c-3.21,10.19-8.44,21.6-14.83,21-7.68-.69-13.28-9.46-13.14-15.13C62.8,224.08,66.52,202.3,66.52,202.3Z" style="fill:#ae7461"></path><path d="M142.76,202.06s-.1-.14-.3-.39l-.93-1.12L138,196.27l-5.68-6.72-.86-1-.45-.5a2,2,0,0,0-.67-.31c-.91-.26-1.85-.45-2.83-.65-1.94-.39-4-.74-6.17-1.1h0a5,5,0,0,0-1.68-.08,2.15,2.15,0,0,0-.83.28,1.81,1.81,0,0,0-.63.63,1.09,1.09,0,0,0-.1.9,2.19,2.19,0,0,0,.5.75,3.38,3.38,0,0,0,.72.56,8.5,8.5,0,0,0,.82.36c2.22.84,4.6,1.55,7,2.27l-.1-.08,1.42,2.93.21-.22-5-1.84h0c-2.16-.56-4.38-1.07-6.67-1.48a33.5,33.5,0,0,0-3.52-.46,10.93,10.93,0,0,0-1.81,0,3.12,3.12,0,0,0-.93.21,1.2,1.2,0,0,0-.7.73,1,1,0,0,0,.31.95,3.76,3.76,0,0,0,.73.6,11.07,11.07,0,0,0,1.65.83c1.15.47,2.33.81,3.5,1.22l7.15,2.41,3.88,1.31.06-.34a46.17,46.17,0,0,1-9.32-1.39,44.24,44.24,0,0,0-4.51-1,6.69,6.69,0,0,0-2.32,0,1.72,1.72,0,0,0-1,.61,1.87,1.87,0,0,0-.35,1.11.82.82,0,0,0,.29.58,2.22,2.22,0,0,0,.45.36,6.65,6.65,0,0,0,1,.53c.67.31,1.36.55,2,.79,1.37.45,2.74.83,4.09,1.19l2,.51c.65.17,1.3.39,2,.54,1.31.33,2.6.63,3.87.91l0-.3a17.85,17.85,0,0,1-4.45-.06c-1.46-.21-2.88-.36-4.28-.5-.7-.06-1.39-.12-2.07-.16-.34,0-.68,0-1,0a3.45,3.45,0,0,0-.54,0,2.69,2.69,0,0,0-.5.17.75.75,0,0,0-.39.43,1.09,1.09,0,0,0,0,.54c.05.16.12.31.18.46l.12.21a.76.76,0,0,0,.18.22,6,6,0,0,0,1.78.76,63.67,63.67,0,0,0,6.83,1.48l1.56.26a14.7,14.7,0,0,1,4.11,1.22l7.34,3.79,1.94,1,.5.25c.12.05.17.08.18.07l-.16-.09-.49-.27-1.92-1-7.3-3.87a19,19,0,0,0-5.72-1.54,65.48,65.48,0,0,1-6.8-1.5,5.82,5.82,0,0,1-1.67-.72.41.41,0,0,1-.12-.14l-.11-.2a3.61,3.61,0,0,1-.16-.42.48.48,0,0,1,.23-.66,1.89,1.89,0,0,1,.44-.14,2.32,2.32,0,0,1,.47,0c.33,0,.66,0,1,0l2.06.18c1.39.13,2.82.29,4.26.5a18,18,0,0,0,4.53.08.16.16,0,0,0,.15-.17.17.17,0,0,0-.12-.14h0c-1.26-.29-2.55-.59-3.85-.92-.66-.15-1.29-.36-2-.54l-2-.52c-1.35-.35-2.71-.73-4.07-1.19a21.13,21.13,0,0,1-2-.77,7.59,7.59,0,0,1-.93-.51c-.27-.18-.59-.43-.59-.67a1.68,1.68,0,0,1,.28-.9,1.39,1.39,0,0,1,.84-.48,6.72,6.72,0,0,1,2.19,0,40.72,40.72,0,0,1,4.47,1,45.94,45.94,0,0,0,9.41,1.4.17.17,0,0,0,.18-.17.15.15,0,0,0-.12-.17h0l-3.88-1.31-7.15-2.41c-1.17-.41-2.36-.76-3.47-1.21a10.39,10.39,0,0,1-1.6-.8,3.53,3.53,0,0,1-.66-.54.68.68,0,0,1-.23-.63c.15-.46.74-.64,1.31-.68a10.34,10.34,0,0,1,1.76,0c1.17.08,2.33.26,3.47.45,2.28.41,4.5.91,6.65,1.46h0l5,1.83a.18.18,0,0,0,.22-.09.19.19,0,0,0,0-.13l-1.42-2.92a.22.22,0,0,0-.1-.09c-2.45-.71-4.84-1.41-7-2.24-.27-.11-.54-.22-.79-.34a2.82,2.82,0,0,1-.64-.51c-.39-.37-.64-.89-.36-1.31a1.64,1.64,0,0,1,1.25-.78,4.79,4.79,0,0,1,1.56.07h0c2.17.34,4.23.69,6.17,1.07,1,.19,1.92.38,2.8.63a1.72,1.72,0,0,1,.58.25c.15.16.3.32.44.49.3.33.58.66.86,1l5.74,6.68,3.63,4.23,1,1.1C142.64,201.94,142.76,202.06,142.76,202.06Z" style="fill:#6f4439"></path><path d="M145.08,204.45c-.1.08,4.56,5.71,10.42,12.57s10.7,12.35,10.81,12.27-4.56-5.71-10.42-12.58S145.19,204.36,145.08,204.45Z" style="fill:#6f4439"></path><path d="M71.26,224.74c.08,0,.61-1.23,1.72-3.16a65.88,65.88,0,0,1,4.93-7.16c2.09-2.69,4.09-5.06,5.47-6.83.69-.88,1.24-1.61,1.6-2.12a3.45,3.45,0,0,0,.51-.83,4.85,4.85,0,0,0-.66.72l-1.71,2c-1.44,1.72-3.48,4.05-5.58,6.76a50.61,50.61,0,0,0-4.85,7.28,22.35,22.35,0,0,0-1.12,2.4A3.79,3.79,0,0,0,71.26,224.74Z" style="fill:#6f4439"></path></g></svg>